<svg width="434" height="272" fill="none" xmlns="http://www.w3.org/2000/svg"><g clip-path="url(#a)"><path d="M0 8a8 8 0 0 1 8-8h426v272H0V8Z" fill="#fff"/><path d="M207.086 50.91h1.783l2.961 4.763h2.997l-3.193-5.012c1.802-.517 2.854-1.82 2.854-3.763 0-2.64-1.837-4.032-4.78-4.032h-5.244v12.807h2.622v-4.762Zm0-2.193v-3.621h2.479c1.534 0 2.319.66 2.319 1.82 0 1.141-.785 1.8-2.319 1.8h-2.479Zm17.809 2.265c0-2.907-1.891-4.87-4.602-4.87-2.711 0-4.602 1.963-4.602 4.87 0 2.925 1.891 4.888 4.602 4.888 2.711 0 4.602-1.962 4.602-4.888Zm-6.724 0c0-1.766.82-2.8 2.122-2.8s2.105 1.034 2.105 2.8c0 1.784-.803 2.819-2.105 2.819s-2.122-1.035-2.122-2.819Zm10.493 0c0-1.748.874-2.782 2.194-2.782 1.035 0 1.659.713 1.891 1.676l2.122-.998c-.445-1.517-1.872-2.765-4.031-2.765-2.729 0-4.655 1.98-4.655 4.87 0 2.907 1.926 4.887 4.655 4.887 2.176 0 3.639-1.285 4.067-2.819l-2.158-.963c-.232.963-.856 1.677-1.891 1.677-1.32 0-2.194-1.017-2.194-2.783Zm10.246-8.116h-2.497v12.807h2.497v-2.871l1.106-1.142 2.586 4.013h2.854l-3.71-5.815 3.443-3.567h-2.997l-3.282 3.639v-7.064Zm11.42 13.004c1.872 0 3.46-.964 4.138-2.676l-2.105-.75c-.285.91-1.052 1.374-2.016 1.374-1.23 0-2.104-.856-2.283-2.283h6.457v-.731c0-2.622-1.498-4.691-4.281-4.691-2.657 0-4.566 2.105-4.566 4.87 0 2.907 1.891 4.887 4.656 4.887Zm-.107-7.76c1.212 0 1.801.803 1.819 1.73h-3.889c.304-1.14 1.071-1.73 2.07-1.73Zm6.329 5.12c0 1.926.999 2.55 2.89 2.55.624 0 1.159-.053 1.605-.142v-2.07a6.475 6.475 0 0 1-.856.054c-.731 0-1.177-.107-1.177-.91v-4.334h1.908v-2.087h-1.908v-2.675h-2.462v2.675h-1.248v2.087h1.248v4.852Zm9.001-2.32h1.784l2.961 4.763h2.997l-3.193-5.012c1.801-.517 2.854-1.82 2.854-3.763 0-2.64-1.837-4.032-4.781-4.032h-5.244v12.807h2.622v-4.762Zm0-2.193v-3.621h2.48c1.534 0 2.319.66 2.319 1.82 0 1.141-.785 1.8-2.319 1.8h-2.48Zm9.245-3.532h2.551v-2.319h-2.551v2.32Zm2.533 1.106h-2.497v9.382h2.497v-9.382Zm5.867 9.579c1.177 0 2.069-.464 2.622-1.16v.963h2.497V42.866h-2.497v4.388c-.553-.677-1.445-1.141-2.622-1.141-2.587 0-4.085 2.212-4.085 4.87 0 2.675 1.498 4.887 4.085 4.887Zm2.675-5.137v.517c0 1.587-.892 2.48-2.087 2.48-1.409 0-2.158-1.125-2.158-2.748 0-1.605.749-2.729 2.158-2.729 1.195 0 2.087.874 2.087 2.48Zm8.912 5.137c1.873 0 3.46-.964 4.138-2.676l-2.104-.75c-.286.91-1.053 1.374-2.016 1.374-1.231 0-2.105-.856-2.283-2.283h6.457v-.731c0-2.622-1.499-4.691-4.281-4.691-2.658 0-4.566 2.105-4.566 4.87 0 2.907 1.89 4.887 4.655 4.887Zm-.107-7.76c1.213 0 1.802.803 1.819 1.73h-3.888c.303-1.14 1.07-1.73 2.069-1.73Zm5.17 5.976c.856 1.16 2.64 1.784 4.334 1.784 2.248 0 4.067-1.213 4.067-3.175 0-2.123-1.944-2.498-3.585-2.837-1.159-.231-1.784-.338-1.784-.945 0-.517.518-.856 1.302-.856.981 0 1.891.446 2.515 1.248l1.427-1.57c-.731-.944-2.211-1.622-3.87-1.622-2.248 0-3.835 1.248-3.835 3.05 0 2.015 1.677 2.408 3.193 2.711 1.498.285 2.194.375 2.194 1.088 0 .678-.732.963-1.57.963-1.052 0-2.194-.553-2.836-1.427l-1.552 1.588Zm9.706 1.587h1.231v.125c0 .767-.411 1.124-1.231 1.177v1.32c1.766 0 2.925-.998 2.925-2.675v-2.836h-2.925v2.89Zm11.566-12.807h-2.622v12.807h2.622V42.866Zm2.452 12.807h2.497v-5.422c0-1.23.856-1.855 1.73-1.855 1.071 0 1.499.749 1.499 1.801v5.476h2.497v-6.19c0-2.032-1.195-3.37-3.157-3.37-1.195 0-2.052.535-2.569 1.141v-.963h-2.497v9.382Zm12.455-4.69c0-1.749.874-2.783 2.194-2.783 1.034 0 1.659.713 1.891 1.676l2.122-.998c-.446-1.517-1.873-2.765-4.031-2.765-2.729 0-4.655 1.98-4.655 4.87 0 2.907 1.926 4.887 4.655 4.887 2.176 0 3.639-1.285 4.067-2.819l-2.158-.963c-.232.963-.857 1.677-1.891 1.677-1.32 0-2.194-1.017-2.194-2.783Zm7.531 4.69h2.925v-2.89h-2.925v2.89Z" fill="#0A2540"/><rect x="203.34" y="71.376" width="599.322" height="39.404" rx="7.135" fill="#fff"/><path fill-rule="evenodd" clip-rule="evenodd" d="M233.662 91.078a7.135 7.135 0 1 1-14.27 0 7.135 7.135 0 0 1 14.27 0Zm-3.124-2.68a.892.892 0 0 0-1.261 0l-3.641 3.648-1.599-1.599a.893.893 0 0 0-1.262 1.261l2.23 2.23a.892.892 0 0 0 1.261 0l4.272-4.279a.89.89 0 0 0 0-1.261Z" fill="#15BE53"/><g filter="url(#b)"><path fill="#fff" d="M249.717 71.376h538.676v39.404H249.717z"/><path d="M252.339 87.113v8.965h-1.836v-8.965h1.836Zm1.367 8.965V89.51h1.748v.674c.362-.424.961-.799 1.798-.799 1.373 0 2.21.937 2.21 2.36v4.333h-1.748v-3.834c0-.736-.3-1.26-1.049-1.26-.612 0-1.211.436-1.211 1.298v3.796h-1.748Zm8.368-3.284c0 1.236.612 1.948 1.536 1.948.724 0 1.161-.5 1.323-1.174l1.511.674c-.3 1.074-1.323 1.973-2.847 1.973-1.91 0-3.258-1.386-3.258-3.421 0-2.023 1.348-3.409 3.258-3.409 1.511 0 2.51.874 2.822 1.935l-1.486.7c-.162-.674-.599-1.174-1.323-1.174-.924 0-1.536.724-1.536 1.948Zm11.13 0c0 2.047-1.324 3.421-3.221 3.421-1.898 0-3.222-1.374-3.222-3.421 0-2.035 1.324-3.409 3.222-3.409 1.897 0 3.221 1.374 3.221 3.409Zm-4.707 0c0 1.248.574 1.973 1.486 1.973.911 0 1.473-.725 1.473-1.973 0-1.236-.562-1.96-1.473-1.96-.912 0-1.486.724-1.486 1.96Zm9.555-3.296v1.71a4.107 4.107 0 0 0-.562-.037c-.911 0-1.61.562-1.61 1.573v3.334h-1.748V89.51h1.748v.924c.287-.574.936-.961 1.748-.961.175 0 .299.012.424.025Zm4.403 6.717c-.824 0-1.448-.325-1.835-.812V98.3h-1.748v-8.79h1.748v.674c.387-.474 1.011-.799 1.835-.799 1.811 0 2.859 1.548 2.859 3.409 0 1.873-1.048 3.421-2.859 3.421Zm-1.873-3.596v.362c0 1.111.625 1.736 1.461 1.736.986 0 1.511-.787 1.511-1.923 0-1.124-.525-1.91-1.511-1.91-.836 0-1.461.611-1.461 1.735Zm11.707.175c0 2.047-1.324 3.421-3.222 3.421-1.897 0-3.221-1.374-3.221-3.421 0-2.035 1.324-3.409 3.221-3.409 1.898 0 3.222 1.374 3.222 3.409Zm-4.707 0c0 1.248.574 1.973 1.485 1.973.912 0 1.474-.725 1.474-1.973 0-1.236-.562-1.96-1.474-1.96-.911 0-1.485.724-1.485 1.96Zm9.555-3.296v1.71a4.117 4.117 0 0 0-.562-.037c-.911 0-1.61.562-1.61 1.573v3.334h-1.748V89.51h1.748v.924c.287-.574.936-.961 1.748-.961.175 0 .299.012.424.025Zm5.955 4.969c0 .562.025 1.124.1 1.61h-1.685a6.476 6.476 0 0 1-.025-.524c-.425.412-1.062.637-1.861.637-1.286 0-2.247-.774-2.247-1.935 0-1.311 1.036-1.86 2.372-2.098l1.636-.312v-.287c0-.525-.35-.737-.974-.737-.712 0-1.011.287-1.049.812h-1.698c.063-1.511 1.211-2.248 2.834-2.248 1.624 0 2.597.687 2.597 1.948v3.134Zm-1.71-.724v-.674l-1.274.25c-.587.112-1.011.299-1.011.823 0 .462.337.712.861.712.737 0 1.424-.375 1.424-1.111Zm3.148.624v-3.396h-.874v-1.46h.874v-1.874h1.723v1.873h1.336v1.46h-1.336v3.035c0 .562.312.637.824.637.25 0 .374-.013.599-.038v1.449c-.312.062-.687.1-1.124.1-1.323 0-2.022-.438-2.022-1.786Zm6.876 1.848c-1.936 0-3.259-1.386-3.259-3.421 0-1.935 1.336-3.409 3.196-3.409 1.948 0 2.997 1.449 2.997 3.284v.512h-4.52c.125.999.737 1.598 1.598 1.598.674 0 1.211-.325 1.411-.961l1.473.524c-.474 1.199-1.585 1.873-2.896 1.873Zm-.075-5.431c-.699 0-1.236.412-1.449 1.21h2.722c-.012-.648-.424-1.21-1.273-1.21Zm9.489 5.668c-.424 1.161-1.024 1.91-2.472 1.91-.337 0-.462-.012-.687-.037v-1.41c.187.012.3.024.5.024.462 0 .711-.125.899-.6l.212-.524-2.36-6.305h1.81l1.486 4.32 1.449-4.32h1.76l-2.597 6.942Zm8.965-3.658c0 2.047-1.324 3.421-3.221 3.421-1.898 0-3.222-1.374-3.222-3.421 0-2.035 1.324-3.409 3.222-3.409 1.897 0 3.221 1.374 3.221 3.409Zm-4.707 0c0 1.248.574 1.973 1.486 1.973.911 0 1.473-.725 1.473-1.973 0-1.236-.562-1.96-1.473-1.96-.912 0-1.486.724-1.486 1.96Zm11.341-3.284v6.568h-1.748v-.675a2.264 2.264 0 0 1-1.773.812c-1.361 0-2.235-.937-2.235-2.36V89.51h1.748v3.958c0 .724.324 1.199 1.049 1.199.611 0 1.211-.45 1.211-1.299V89.51h1.748Zm5.234-.012v1.71a4.102 4.102 0 0 0-.561-.037c-.912 0-1.611.562-1.611 1.573v3.334h-1.748V89.51h1.748v.924c.287-.574.936-.961 1.748-.961.175 0 .3.012.424.025Zm4.555 3.296c0 1.236.612 1.948 1.536 1.948.724 0 1.161-.5 1.323-1.174l1.511.674c-.3 1.074-1.324 1.973-2.847 1.973-1.91 0-3.259-1.386-3.259-3.421 0-2.023 1.349-3.409 3.259-3.409 1.511 0 2.51.874 2.822 1.935l-1.486.7c-.162-.674-.599-1.174-1.323-1.174-.924 0-1.536.724-1.536 1.948Zm11.13 0c0 2.047-1.324 3.421-3.222 3.421s-3.221-1.374-3.221-3.421c0-2.035 1.323-3.409 3.221-3.409 1.898 0 3.222 1.374 3.222 3.409Zm-4.707 0c0 1.248.574 1.973 1.485 1.973.912 0 1.474-.725 1.474-1.973 0-1.236-.562-1.96-1.474-1.96-.911 0-1.485.724-1.485 1.96Zm7.383-.512v3.796h-1.748V89.51h1.748v.674c.349-.424.936-.799 1.785-.799.799 0 1.411.337 1.773.9.4-.413 1.024-.9 2.035-.9 1.349 0 2.223.937 2.223 2.36v4.333h-1.748v-3.834c0-.736-.275-1.26-.999-1.26-.575 0-1.161.436-1.161 1.298v3.796h-1.748v-3.834c0-.736-.275-1.26-.999-1.26-.575 0-1.161.436-1.161 1.298Zm12.672 3.933c-.825 0-1.449-.325-1.836-.812V98.3h-1.748v-8.79h1.748v.674c.387-.474 1.011-.799 1.836-.799 1.81 0 2.859 1.548 2.859 3.409 0 1.873-1.049 3.421-2.859 3.421Zm-1.873-3.596v.362c0 1.111.624 1.736 1.461 1.736.986 0 1.51-.787 1.51-1.923 0-1.124-.524-1.91-1.51-1.91-.837 0-1.461.611-1.461 1.735Zm10.945 1.848c0 .562.025 1.124.1 1.61h-1.686c-.012-.162-.025-.337-.025-.524-.424.412-1.061.637-1.86.637-1.286 0-2.248-.774-2.248-1.935 0-1.311 1.037-1.86 2.373-2.098l1.635-.312v-.287c0-.525-.349-.737-.974-.737-.711 0-1.011.287-1.048.812h-1.698c.062-1.511 1.211-2.248 2.834-2.248s2.597.687 2.597 1.948v3.134Zm-1.711-.724v-.674l-1.273.25c-.587.112-1.012.299-1.012.823 0 .462.338.712.862.712.737 0 1.423-.375 1.423-1.111Zm2.973 2.335V89.51h1.748v.674c.362-.424.962-.799 1.798-.799 1.374 0 2.21.937 2.21 2.36v4.333h-1.748v-3.834c0-.736-.299-1.26-1.048-1.26-.612 0-1.212.436-1.212 1.298v3.796h-1.748Zm10.131.374c-.424 1.161-1.023 1.91-2.472 1.91-.337 0-.462-.012-.686-.037v-1.41c.187.012.299.024.499.024.462 0 .712-.125.899-.6l.212-.524-2.36-6.305h1.811l1.486 4.32 1.448-4.32h1.761l-2.598 6.942Z" fill="#4F5B76"/></g><rect x="203.34" y="111.672" width="599.322" height="39.404" rx="7.135" fill="#fff"/><path fill-rule="evenodd" clip-rule="evenodd" d="M233.662 131.374a7.135 7.135 0 1 1-14.27 0 7.135 7.135 0 0 1 14.27 0Zm-3.124-2.68a.892.892 0 0 0-1.261 0l-3.641 3.648-1.599-1.599a.893.893 0 0 0-1.262 1.261l2.23 2.23a.892.892 0 0 0 1.261 0l4.272-4.279a.89.89 0 0 0 0-1.261Z" fill="#15BE53"/><g filter="url(#c)"><path fill="#fff" d="M249.717 111.672h538.676v39.404H249.717z"/><path d="m249.604 134.738 1.261-1.223c.662.936 1.624 1.46 2.61 1.46.936 0 1.623-.412 1.623-1.173 0-.824-.849-.937-2.197-1.236-1.336-.313-2.785-.737-2.785-2.51 0-1.711 1.474-2.784 3.334-2.784 1.548 0 2.759.686 3.384 1.585l-1.211 1.186c-.525-.736-1.224-1.236-2.223-1.236-.874 0-1.473.425-1.473 1.074 0 .699.649.837 1.823 1.099 1.423.312 3.171.674 3.171 2.634 0 1.811-1.598 2.897-3.508 2.897-1.511 0-3.084-.687-3.809-1.773Zm8.41-.075v-3.396h-.874v-1.461h.874v-1.873h1.723v1.873h1.336v1.461h-1.336v3.034c0 .562.312.637.824.637.25 0 .375-.013.599-.038v1.449c-.312.062-.686.1-1.123.1-1.324 0-2.023-.437-2.023-1.786Zm10.06-1.573c0 2.048-1.324 3.421-3.222 3.421-1.897 0-3.221-1.373-3.221-3.421 0-2.035 1.324-3.409 3.221-3.409 1.898 0 3.222 1.374 3.222 3.409Zm-4.707 0c0 1.249.574 1.973 1.485 1.973.912 0 1.474-.724 1.474-1.973 0-1.236-.562-1.96-1.474-1.96-.911 0-1.485.724-1.485 1.96Zm6.995 0c0 1.236.612 1.948 1.536 1.948.724 0 1.161-.5 1.324-1.174l1.51.674c-.299 1.074-1.323 1.973-2.846 1.973-1.911 0-3.259-1.386-3.259-3.421 0-2.023 1.348-3.409 3.259-3.409 1.51 0 2.509.874 2.821 1.936l-1.485.699c-.163-.674-.6-1.174-1.324-1.174-.924 0-1.536.724-1.536 1.948Zm6.822-5.681v4.944l2.298-2.547h2.097l-2.409 2.497 2.597 4.071h-1.998l-1.81-2.81-.775.8v2.01h-1.748v-8.965h1.748Zm7.488 1.623v-1.623h1.785v1.623h-1.785Zm1.773.774v6.568h-1.748v-6.568h1.748Zm.648 5.457 1.086-1.112c.449.612 1.249.999 1.985.999.587 0 1.099-.2 1.099-.674 0-.5-.487-.562-1.536-.762-1.061-.212-2.235-.487-2.235-1.898 0-1.261 1.111-2.135 2.685-2.135 1.161 0 2.197.475 2.709 1.137l-.999 1.098a2.211 2.211 0 0 0-1.76-.874c-.55 0-.912.238-.912.6 0 .424.437.499 1.249.661 1.149.238 2.51.5 2.51 1.986 0 1.373-1.274 2.222-2.847 2.222-1.186 0-2.435-.437-3.034-1.248Zm6.117 0 1.087-1.112c.449.612 1.248.999 1.985.999.587 0 1.099-.2 1.099-.674 0-.5-.487-.562-1.536-.762-1.061-.212-2.235-.487-2.235-1.898 0-1.261 1.111-2.135 2.684-2.135 1.162 0 2.198.475 2.71 1.137l-.999 1.098a2.211 2.211 0 0 0-1.76-.874c-.55 0-.912.238-.912.6 0 .424.437.499 1.249.661 1.148.238 2.509.5 2.509 1.986 0 1.373-1.273 2.222-2.846 2.222-1.187 0-2.435-.437-3.035-1.248Zm12.461-5.457v6.568h-1.748v-.674a2.263 2.263 0 0 1-1.773.811c-1.361 0-2.235-.936-2.235-2.36v-4.345h1.748v3.958c0 .724.325 1.199 1.049 1.199.612 0 1.211-.45 1.211-1.299v-3.858h1.748Zm4.186 6.705c-1.935 0-3.259-1.386-3.259-3.421 0-1.935 1.336-3.409 3.197-3.409 1.948 0 2.996 1.449 2.996 3.284v.512h-4.52c.125.999.737 1.598 1.599 1.598.674 0 1.211-.324 1.411-.961l1.473.524c-.475 1.199-1.586 1.873-2.897 1.873Zm-.075-5.431c-.699 0-1.236.412-1.448 1.211h2.722c-.013-.649-.425-1.211-1.274-1.211Zm6.378 5.431c-1.81 0-2.859-1.548-2.859-3.421 0-1.86 1.049-3.409 2.859-3.409.824 0 1.449.325 1.836.799v-3.071h1.748v8.965h-1.748v-.674c-.387.486-1.012.811-1.836.811Zm1.873-3.596c0-1.124-.624-1.735-1.461-1.735-.986 0-1.51.786-1.51 1.91 0 1.136.524 1.923 1.51 1.923.837 0 1.461-.624 1.461-1.736v-.362Zm8.65-5.606v1.436c-.162-.013-.262-.013-.45-.013-.549 0-.836.163-.836.812v.262h1.273v1.461h-1.273v5.107h-1.748v-5.107h-.887v-1.461h.887v-.362c0-1.386.749-2.16 2.36-2.16.249 0 .399 0 .674.025Zm6.647 5.781c0 2.048-1.324 3.421-3.221 3.421-1.898 0-3.222-1.373-3.222-3.421 0-2.035 1.324-3.409 3.222-3.409 1.897 0 3.221 1.374 3.221 3.409Zm-4.707 0c0 1.249.574 1.973 1.486 1.973.911 0 1.473-.724 1.473-1.973 0-1.236-.562-1.96-1.473-1.96-.912 0-1.486.724-1.486 1.96Zm9.555-3.296v1.71a4.092 4.092 0 0 0-.562-.037c-.911 0-1.61.562-1.61 1.573v3.334h-1.748v-6.568h1.748v.924c.287-.574.936-.961 1.748-.961.175 0 .299.012.424.025Zm6.453-2.485v1.436c-.163-.013-.263-.013-.45-.013-.549 0-.836.163-.836.812v.262h1.273v1.461h-1.273v5.107h-1.748v-5.107h-.887v-1.461h.887v-.362c0-1.386.749-2.16 2.359-2.16.25 0 .4 0 .675.025Zm6.647 5.781c0 2.048-1.324 3.421-3.222 3.421s-3.221-1.373-3.221-3.421c0-2.035 1.323-3.409 3.221-3.409 1.898 0 3.222 1.374 3.222 3.409Zm-4.708 0c0 1.249.575 1.973 1.486 1.973.912 0 1.474-.724 1.474-1.973 0-1.236-.562-1.96-1.474-1.96-.911 0-1.486.724-1.486 1.96Zm11.342-3.284v6.568h-1.748v-.674a2.266 2.266 0 0 1-1.773.811c-1.361 0-2.235-.936-2.235-2.36v-4.345h1.748v3.958c0 .724.324 1.199 1.048 1.199.612 0 1.212-.45 1.212-1.299v-3.858h1.748Zm1.314 6.568v-6.568h1.748v.674c.362-.424.961-.799 1.798-.799 1.373 0 2.21.937 2.21 2.36v4.333h-1.748v-3.833c0-.737-.3-1.261-1.049-1.261-.612 0-1.211.437-1.211 1.298v3.796h-1.748Zm9.479.137c-1.81 0-2.859-1.548-2.859-3.421 0-1.86 1.049-3.409 2.859-3.409.824 0 1.449.325 1.836.799v-3.071h1.748v8.965h-1.748v-.674c-.387.486-1.012.811-1.836.811Zm1.873-3.596c0-1.124-.624-1.735-1.461-1.735-.986 0-1.51.786-1.51 1.91 0 1.136.524 1.923 1.51 1.923.837 0 1.461-.624 1.461-1.736v-.362Zm5.889 3.596c-1.936 0-3.259-1.386-3.259-3.421 0-1.935 1.336-3.409 3.196-3.409 1.948 0 2.997 1.449 2.997 3.284v.512h-4.52c.125.999.737 1.598 1.598 1.598.674 0 1.211-.324 1.411-.961l1.473.524c-.474 1.199-1.585 1.873-2.896 1.873Zm-.075-5.431c-.699 0-1.236.412-1.449 1.211h2.722c-.012-.649-.424-1.211-1.273-1.211Zm7.827-1.286v1.71c-.2-.025-.35-.037-.562-.037-.912 0-1.611.562-1.611 1.573v3.334h-1.748v-6.568h1.748v.924c.287-.574.936-.961 1.748-.961.175 0 .3.012.425.025Zm.072 5.469 1.086-1.112c.45.612 1.249.999 1.986.999.587 0 1.098-.2 1.098-.674 0-.5-.486-.562-1.535-.762-1.062-.212-2.235-.487-2.235-1.898 0-1.261 1.111-2.135 2.684-2.135 1.161 0 2.198.475 2.71 1.137l-.999 1.098a2.211 2.211 0 0 0-1.761-.874c-.549 0-.911.238-.911.6 0 .424.437.499 1.248.661 1.149.238 2.51.5 2.51 1.986 0 1.373-1.274 2.222-2.847 2.222-1.186 0-2.435-.437-3.034-1.248Z" fill="#4F5B76"/></g><rect x="203.34" y="151.968" width="599.322" height="39.404" rx="7.135" fill="#fff"/><path fill-rule="evenodd" clip-rule="evenodd" d="M233.662 171.67a7.135 7.135 0 1 1-14.27 0 7.135 7.135 0 0 1 14.27 0Zm-3.124-2.68a.892.892 0 0 0-1.261 0l-3.641 3.648-1.599-1.599a.893.893 0 0 0-1.262 1.262l2.23 2.229a.892.892 0 0 0 1.261 0l4.272-4.279a.89.89 0 0 0 0-1.261Z" fill="#15BE53"/><g filter="url(#d)"><path fill="#fff" d="M249.717 151.968h538.676v39.404H249.717z"/><path d="M252.339 173.374v3.296h-1.836v-8.965h3.671c2.06 0 3.346.974 3.346 2.834 0 1.848-1.286 2.835-3.346 2.835h-1.835Zm0-1.561h1.735c1.074 0 1.624-.475 1.624-1.274 0-.811-.55-1.273-1.624-1.273h-1.735v2.547Zm11.548-1.711v6.568h-1.749v-.674a2.263 2.263 0 0 1-1.773.811c-1.36 0-2.234-.936-2.234-2.36v-4.345h1.748v3.958c0 .725.324 1.199 1.048 1.199.612 0 1.211-.449 1.211-1.299v-3.858h1.749Zm5.234-.012v1.71a4.102 4.102 0 0 0-.562-.037c-.911 0-1.61.562-1.61 1.573v3.334h-1.748v-6.568h1.748v.924c.287-.574.936-.961 1.748-.961.174 0 .299.012.424.025Zm1.888 3.296c0 1.236.611 1.948 1.535 1.948.724 0 1.161-.5 1.324-1.174l1.511.674c-.3 1.074-1.324 1.973-2.847 1.973-1.911 0-3.259-1.386-3.259-3.421 0-2.023 1.348-3.409 3.259-3.409 1.511 0 2.509.875 2.822 1.936l-1.486.699c-.163-.674-.6-1.174-1.324-1.174-.924 0-1.535.725-1.535 1.948Zm5.074 3.284v-8.965h1.748v3.072c.362-.425.961-.8 1.798-.8 1.373 0 2.21.937 2.21 2.36v4.333h-1.748v-3.833c0-.737-.3-1.261-1.049-1.261-.612 0-1.211.437-1.211 1.298v3.796h-1.748Zm12.326-1.611c0 .562.025 1.124.1 1.611h-1.685a6.466 6.466 0 0 1-.025-.524c-.425.412-1.062.636-1.861.636-1.286 0-2.247-.774-2.247-1.935 0-1.311 1.036-1.86 2.372-2.098l1.636-.312v-.287c0-.524-.35-.737-.974-.737-.712 0-1.012.288-1.049.812h-1.698c.062-1.511 1.211-2.248 2.834-2.248s2.597.687 2.597 1.948v3.134Zm-1.71-.724v-.674l-1.274.25c-.587.112-1.011.299-1.011.824 0 .462.337.711.861.711.737 0 1.424-.374 1.424-1.111Zm2.323 1.224 1.087-1.112c.449.612 1.248.999 1.985.999.587 0 1.099-.199 1.099-.674 0-.499-.487-.562-1.536-.762-1.061-.212-2.235-.487-2.235-1.897 0-1.261 1.111-2.136 2.684-2.136 1.162 0 2.198.475 2.71 1.137l-.999 1.098a2.214 2.214 0 0 0-1.761-.874c-.549 0-.911.238-.911.6 0 .424.437.499 1.249.662 1.148.237 2.509.499 2.509 1.985 0 1.373-1.273 2.222-2.847 2.222-1.186 0-2.434-.437-3.034-1.248Zm9.639 1.248c-1.935 0-3.259-1.386-3.259-3.421 0-1.935 1.336-3.409 3.197-3.409 1.948 0 2.996 1.449 2.996 3.284v.512h-4.519c.124.999.736 1.598 1.598 1.598.674 0 1.211-.324 1.411-.961l1.473.524c-.475 1.199-1.586 1.873-2.897 1.873Zm-.075-5.431c-.699 0-1.236.412-1.448 1.211h2.722c-.013-.649-.425-1.211-1.274-1.211Zm9.49 5.668c-.425 1.162-1.024 1.911-2.473 1.911-.337 0-.462-.013-.686-.038v-1.411c.187.013.299.025.499.025.462 0 .712-.124.899-.599l.212-.524-2.36-6.306h1.811l1.486 4.32 1.448-4.32h1.761l-2.597 6.942Zm8.964-3.658c0 2.048-1.323 3.421-3.221 3.421-1.898 0-3.221-1.373-3.221-3.421 0-2.035 1.323-3.409 3.221-3.409 1.898 0 3.221 1.374 3.221 3.409Zm-4.707 0c0 1.249.575 1.973 1.486 1.973.912 0 1.473-.724 1.473-1.973 0-1.236-.561-1.96-1.473-1.96-.911 0-1.486.724-1.486 1.96Zm11.341-3.284v6.568h-1.748v-.674a2.263 2.263 0 0 1-1.773.811c-1.361 0-2.235-.936-2.235-2.36v-4.345h1.748v3.958c0 .725.325 1.199 1.049 1.199.612 0 1.211-.449 1.211-1.299v-3.858h1.748Zm5.235-.012v1.71c-.2-.025-.35-.037-.562-.037-.911 0-1.611.562-1.611 1.573v3.334h-1.748v-6.568h1.748v.924c.288-.574.937-.961 1.748-.961.175 0 .3.012.425.025Zm2.557 5.469 1.086-1.112c.449.612 1.249.999 1.985.999.587 0 1.099-.199 1.099-.674 0-.499-.487-.562-1.536-.762-1.061-.212-2.235-.487-2.235-1.897 0-1.261 1.111-2.136 2.685-2.136 1.161 0 2.197.475 2.709 1.137l-.999 1.098a2.214 2.214 0 0 0-1.76-.874c-.55 0-.912.238-.912.6 0 .424.437.499 1.249.662 1.149.237 2.51.499 2.51 1.985 0 1.373-1.274 2.222-2.847 2.222-1.186 0-2.435-.437-3.034-1.248Zm6.767 1.111v-8.965h1.748v3.072c.362-.425.961-.8 1.798-.8 1.373 0 2.21.937 2.21 2.36v4.333h-1.748v-3.833c0-.737-.3-1.261-1.049-1.261-.612 0-1.211.437-1.211 1.298v3.796h-1.748Zm12.326-1.611c0 .562.025 1.124.1 1.611h-1.685a6.466 6.466 0 0 1-.025-.524c-.425.412-1.062.636-1.861.636-1.286 0-2.247-.774-2.247-1.935 0-1.311 1.036-1.86 2.372-2.098l1.636-.312v-.287c0-.524-.35-.737-.974-.737-.712 0-1.011.288-1.049.812h-1.698c.062-1.511 1.211-2.248 2.834-2.248s2.597.687 2.597 1.948v3.134Zm-1.71-.724v-.674l-1.274.25c-.587.112-1.011.299-1.011.824 0 .462.337.711.861.711.737 0 1.424-.374 1.424-1.111Zm6.893-4.245v1.71a4.092 4.092 0 0 0-.562-.037c-.911 0-1.61.562-1.61 1.573v3.334h-1.748v-6.568h1.748v.924c.287-.574.936-.961 1.748-.961.175 0 .299.012.424.025Zm3.411 6.717c-1.935 0-3.259-1.386-3.259-3.421 0-1.935 1.336-3.409 3.197-3.409 1.947 0 2.996 1.449 2.996 3.284v.512h-4.52c.125.999.737 1.598 1.599 1.598.674 0 1.211-.324 1.41-.961l1.474.524c-.475 1.199-1.586 1.873-2.897 1.873Zm-.075-5.431c-.699 0-1.236.412-1.448 1.211h2.722c-.013-.649-.425-1.211-1.274-1.211Zm3.269 4.183 1.087-1.112c.449.612 1.248.999 1.985.999.587 0 1.099-.199 1.099-.674 0-.499-.487-.562-1.536-.762-1.062-.212-2.235-.487-2.235-1.897 0-1.261 1.111-2.136 2.684-2.136 1.161 0 2.198.475 2.71 1.137l-.999 1.098a2.214 2.214 0 0 0-1.761-.874c-.549 0-.911.238-.911.6 0 .424.437.499 1.248.662 1.149.237 2.51.499 2.51 1.985 0 1.373-1.273 2.222-2.847 2.222-1.186 0-2.434-.437-3.034-1.248Z" fill="#4F5B76"/></g><rect x="203.34" y="192.264" width="599.322" height="39.404" rx="7.135" fill="#fff"/><path fill-rule="evenodd" clip-rule="evenodd" d="M220.26 217.54c0-.369.3-.669.67-.669h11.17a.67.67 0 1 1 0 1.338h-11.17a.67.67 0 0 1-.67-.669ZM226.515 210.406c0-.37.3-.669.67-.669h4.915a.67.67 0 1 1 0 1.337h-4.915a.669.669 0 0 1-.67-.668ZM220.26 213.973c0-.369.3-.669.67-.669h11.17a.67.67 0 1 1 0 1.338h-11.17a.67.67 0 0 1-.67-.669Z" fill="#0A2540"/><path d="M227.412 206.863a.67.67 0 0 0-.954-.941l-4.198 4.237-1.692-1.94a.67.67 0 0 0-1.011.878l2.154 2.47a.65.65 0 0 0 .217.165c.253.13.572.088.783-.125l4.701-4.744Z" fill="#0A2540"/><g filter="url(#e)"><path fill="#fff" d="M249.717 192.264h538.676v39.404H249.717z"/><path fill="#fff" d="M249.717 202.966h385.278v18H249.717z"/><path d="M252.314 216.966h-1.811v-8.965h6.118v1.586h-4.307v2.235h3.596v1.586h-3.596v3.558Zm5.025-7.341v-1.624h1.785v1.624h-1.785Zm1.773.774v6.567h-1.748v-6.567h1.748Zm3.045-2.398v8.965h-1.748v-8.965h1.748Zm4.168 9.103c-1.935 0-3.258-1.386-3.258-3.421 0-1.936 1.336-3.409 3.196-3.409 1.948 0 2.997 1.448 2.997 3.284v.512h-4.52c.125.998.736 1.598 1.598 1.598.674 0 1.211-.325 1.411-.962l1.473.525c-.474 1.198-1.586 1.873-2.897 1.873Zm-.074-5.432c-.7 0-1.237.412-1.449 1.211h2.722c-.012-.649-.424-1.211-1.273-1.211Zm9.351-3.808c1.661 0 3.01.962 3.01 2.522 0 .849-.462 1.511-1.237 1.898.937.325 1.661 1.111 1.661 2.185 0 1.611-1.473 2.635-3.434 2.635-1.96 0-3.446-1.024-3.446-2.635 0-1.074.737-1.86 1.673-2.185-.786-.387-1.236-1.049-1.236-1.898 0-1.56 1.349-2.522 3.009-2.522Zm0 3.696c.812 0 1.361-.462 1.361-1.149 0-.686-.549-1.148-1.361-1.148-.811 0-1.361.462-1.361 1.148 0 .687.55 1.149 1.361 1.149Zm0 1.448c-.973 0-1.635.55-1.635 1.324 0 .811.662 1.336 1.635 1.336.962 0 1.636-.525 1.636-1.336 0-.774-.674-1.324-1.636-1.324Zm7.286 4.096c-1.822 0-3.233-.962-3.496-2.76l1.786-.312c.137.987.824 1.548 1.685 1.548.862 0 1.486-.449 1.486-1.286 0-.824-.661-1.173-1.598-1.173h-.861v-1.511h.836c.874 0 1.411-.35 1.411-1.086 0-.7-.462-1.137-1.261-1.137-.862 0-1.423.612-1.573 1.486l-1.673-.25c.224-1.523 1.423-2.759 3.308-2.759 1.848 0 2.96 1.074 2.96 2.547 0 .912-.537 1.648-1.249 1.923.837.287 1.486.949 1.486 2.085 0 1.461-1.249 2.685-3.247 2.685Zm5.658-4.133c0 1.985.836 3.895 1.985 5.219h-1.711c-1.148-1.186-2.21-2.984-2.21-5.219 0-2.235 1.062-4.033 2.21-5.219h1.711c-1.149 1.348-1.985 3.234-1.985 5.219Zm6.154 4.133c-.824 0-1.449-.325-1.836-.812v.674h-1.748v-8.965h1.748v3.072c.387-.474 1.012-.799 1.836-.799 1.81 0 2.859 1.548 2.859 3.409 0 1.872-1.049 3.421-2.859 3.421Zm-1.873-3.596v.362c0 1.111.624 1.735 1.461 1.735.986 0 1.51-.786 1.51-1.922 0-1.124-.524-1.911-1.51-1.911-.837 0-1.461.612-1.461 1.736Zm6.9-.537c0-1.985-.837-3.871-1.986-5.219h1.711c1.149 1.186 2.21 2.984 2.21 5.219 0 2.235-1.061 4.033-2.21 5.219h-1.711c1.149-1.324 1.986-3.234 1.986-5.219Zm8.078 4.133c-1.935 0-3.258-1.386-3.258-3.421 0-1.936 1.336-3.409 3.196-3.409 1.948 0 2.997 1.448 2.997 3.284v.512h-4.52c.125.998.736 1.598 1.598 1.598.674 0 1.211-.325 1.411-.962l1.473.525c-.474 1.198-1.586 1.873-2.897 1.873Zm-.074-5.432c-.7 0-1.237.412-1.449 1.211h2.722c-.012-.649-.424-1.211-1.273-1.211Zm5.654-3.671v8.965h-1.748v-8.965h1.748Zm4.169 9.103c-1.936 0-3.259-1.386-3.259-3.421 0-1.936 1.336-3.409 3.196-3.409 1.948 0 2.997 1.448 2.997 3.284v.512h-4.52c.125.998.737 1.598 1.598 1.598.674 0 1.211-.325 1.411-.962l1.473.525c-.474 1.198-1.585 1.873-2.896 1.873Zm-.075-5.432c-.7 0-1.236.412-1.449 1.211h2.722c-.012-.649-.424-1.211-1.273-1.211Zm5.267 2.011c0 1.236.611 1.947 1.535 1.947.725 0 1.162-.499 1.324-1.173l1.511.674c-.3 1.074-1.324 1.973-2.847 1.973-1.91 0-3.259-1.386-3.259-3.421 0-2.023 1.349-3.409 3.259-3.409 1.511 0 2.51.874 2.822 1.935l-1.486.699c-.162-.674-.599-1.173-1.324-1.173-.924 0-1.535.724-1.535 1.948Zm5.273 1.573v-3.396h-.874v-1.461h.874v-1.873h1.723v1.873h1.336v1.461h-1.336v3.034c0 .562.312.636.824.636.25 0 .375-.012.599-.037v1.448c-.312.063-.686.1-1.123.1-1.324 0-2.023-.437-2.023-1.785Zm4.028-5.631v-1.624h1.785v1.624h-1.785Zm1.773.774v6.567h-1.748v-6.567h1.748Zm7.353 3.284c0 2.047-1.324 3.421-3.222 3.421s-3.221-1.374-3.221-3.421c0-2.036 1.323-3.409 3.221-3.409 1.898 0 3.222 1.373 3.222 3.409Zm-4.707 0c0 1.248.574 1.972 1.485 1.972.912 0 1.474-.724 1.474-1.972 0-1.237-.562-1.961-1.474-1.961-.911 0-1.485.724-1.485 1.961Zm5.635 3.283v-6.567h1.748v.674c.362-.425.961-.799 1.798-.799 1.373 0 2.21.936 2.21 2.36v4.332h-1.748v-3.833c0-.737-.3-1.261-1.049-1.261-.612 0-1.211.437-1.211 1.299v3.795h-1.748Z" fill="#0A2540"/></g><rect x="203.34" y="232.56" width="599.322" height="39.404" rx="7.135" fill="#fff"/><path fill-rule="evenodd" clip-rule="evenodd" d="M232.519 252.263h-1.104v3.638l1.296 1.009c.865.646.429 2.041-.672 2.041h-11.07c-1.101 0-1.537-1.395-.672-2.041l1.296-1.009v-3.638h-1.07c-1.089 0-1.558-1.404-.658-2.048l6.26-4.515a.663.663 0 0 1 .396-.126.663.663 0 0 1 .396.126l6.26 4.515c.9.644.431 2.048-.658 2.048Zm-11.351-1.338 5.353-3.861 5.353 3.861H221.168Zm6.251 1.338h-1.783v3.344a.67.67 0 0 1-1.338 0v-3.344h-1.367v3.965a.667.667 0 0 1-.258.528l-1.102.858h9.866l-1.102-.858a.667.667 0 0 1-.258-.528v-3.965h-1.32v3.344a.669.669 0 1 1-1.338 0v-3.344Z" fill="#0A2540"/><g filter="url(#f)"><path fill="#fff" d="M249.717 232.56h538.676v39.404H249.717z"/><path fill="#fff" d="M249.717 243.262h385.278v18H249.717z"/><path d="M250.054 252.78c0-2.709 1.773-4.62 4.245-4.62 2.46 0 4.233 1.911 4.233 4.62s-1.773 4.62-4.233 4.62c-2.472 0-4.245-1.911-4.245-4.62Zm6.63 0c0-1.835-.986-3.009-2.385-3.009-1.411 0-2.397 1.174-2.397 3.009s.986 3.009 2.397 3.009c1.399 0 2.385-1.174 2.385-3.009Zm6.36 4.62c-.824 0-1.448-.325-1.835-.812v2.897h-1.748v-8.79h1.748v.674c.387-.474 1.011-.799 1.835-.799 1.811 0 2.859 1.548 2.859 3.409 0 1.873-1.048 3.421-2.859 3.421Zm-1.873-3.596v.362c0 1.111.625 1.735 1.461 1.735.987 0 1.511-.786 1.511-1.922 0-1.124-.524-1.911-1.511-1.911-.836 0-1.461.612-1.461 1.736Zm8.523 3.596c-1.935 0-3.259-1.386-3.259-3.421 0-1.936 1.336-3.409 3.197-3.409 1.947 0 2.996 1.448 2.996 3.284v.512h-4.52c.125.999.737 1.598 1.598 1.598.675 0 1.212-.325 1.411-.961l1.474.524c-.475 1.199-1.586 1.873-2.897 1.873Zm-.075-5.432c-.699 0-1.236.412-1.448 1.212h2.722c-.013-.65-.425-1.212-1.274-1.212Zm3.906 5.294v-6.567h1.748v.674c.362-.424.962-.799 1.798-.799 1.374 0 2.21.936 2.21 2.36v4.332h-1.748v-3.833c0-.736-.299-1.261-1.049-1.261-.611 0-1.211.437-1.211 1.299v3.795h-1.748Zm14.714-1.61c0 .562.025 1.124.099 1.61h-1.685a6.466 6.466 0 0 1-.025-.524c-.425.412-1.061.637-1.861.637-1.286 0-2.247-.774-2.247-1.935 0-1.312 1.036-1.861 2.372-2.098l1.636-.312v-.287c0-.525-.35-.737-.974-.737-.712 0-1.011.287-1.049.811h-1.698c.063-1.51 1.211-2.247 2.834-2.247 1.624 0 2.598.687 2.598 1.948v3.134Zm-1.711-.724v-.675l-1.274.25c-.586.112-1.011.3-1.011.824 0 .462.337.712.862.712.736 0 1.423-.375 1.423-1.111Zm8.943 2.472c-.824 0-1.448-.325-1.835-.812v.674h-1.748v-8.964h1.748v3.071c.387-.474 1.011-.799 1.835-.799 1.811 0 2.859 1.548 2.859 3.409 0 1.873-1.048 3.421-2.859 3.421Zm-1.873-3.596v.362c0 1.111.624 1.735 1.461 1.735.986 0 1.511-.786 1.511-1.922 0-1.124-.525-1.911-1.511-1.911-.837 0-1.461.612-1.461 1.736Zm10.945 1.848c0 .562.025 1.124.1 1.61h-1.685a6.466 6.466 0 0 1-.025-.524c-.425.412-1.062.637-1.861.637-1.286 0-2.247-.774-2.247-1.935 0-1.312 1.036-1.861 2.372-2.098l1.636-.312v-.287c0-.525-.35-.737-.974-.737-.712 0-1.011.287-1.049.811h-1.698c.063-1.51 1.211-2.247 2.834-2.247 1.624 0 2.597.687 2.597 1.948v3.134Zm-1.71-.724v-.675l-1.274.25c-.587.112-1.011.3-1.011.824 0 .462.337.712.861.712.737 0 1.424-.375 1.424-1.111Zm2.973 2.334v-6.567h1.748v.674c.362-.424.961-.799 1.798-.799 1.373 0 2.21.936 2.21 2.36v4.332h-1.748v-3.833c0-.736-.3-1.261-1.049-1.261-.612 0-1.211.437-1.211 1.299v3.795h-1.748Zm8.768-8.964v4.944l2.297-2.547h2.098l-2.41 2.497 2.597 4.07h-1.997l-1.811-2.809-.774.799v2.01h-1.748v-8.964h1.748Zm12.819 7.354c0 .562.025 1.124.1 1.61h-1.686c-.012-.162-.025-.337-.025-.524-.424.412-1.061.637-1.86.637-1.286 0-2.248-.774-2.248-1.935 0-1.312 1.037-1.861 2.373-2.098l1.635-.312v-.287c0-.525-.349-.737-.974-.737-.711 0-1.011.287-1.048.811h-1.698c.062-1.51 1.211-2.247 2.834-2.247s2.597.687 2.597 1.948v3.134Zm-1.711-.724v-.675l-1.273.25c-.587.112-1.012.3-1.012.824 0 .462.338.712.862.712.737 0 1.423-.375 1.423-1.111Zm4.322-.949c0 1.236.612 1.947 1.536 1.947.724 0 1.161-.499 1.323-1.173l1.511.674c-.3 1.074-1.324 1.973-2.847 1.973-1.91 0-3.259-1.386-3.259-3.421 0-2.023 1.349-3.409 3.259-3.409 1.511 0 2.51.874 2.822 1.935l-1.486.7c-.162-.675-.599-1.174-1.323-1.174-.924 0-1.536.724-1.536 1.948Zm6.422 0c0 1.236.612 1.947 1.536 1.947.724 0 1.161-.499 1.324-1.173l1.51.674c-.299 1.074-1.323 1.973-2.846 1.973-1.911 0-3.259-1.386-3.259-3.421 0-2.023 1.348-3.409 3.259-3.409 1.51 0 2.509.874 2.821 1.935l-1.485.7c-.163-.675-.6-1.174-1.324-1.174-.924 0-1.536.724-1.536 1.948Zm11.13 0c0 2.047-1.323 3.421-3.221 3.421-1.898 0-3.222-1.374-3.222-3.421 0-2.036 1.324-3.409 3.222-3.409s3.221 1.373 3.221 3.409Zm-4.707 0c0 1.248.574 1.972 1.486 1.972.911 0 1.473-.724 1.473-1.972 0-1.236-.562-1.961-1.473-1.961-.912 0-1.486.725-1.486 1.961Zm11.341-3.284v6.567h-1.748v-.674a2.26 2.26 0 0 1-1.773.812c-1.361 0-2.235-.937-2.235-2.36v-4.345h1.748v3.958c0 .724.325 1.199 1.049 1.199.612 0 1.211-.45 1.211-1.299v-3.858h1.748Zm1.314 6.567v-6.567h1.748v.674c.362-.424.962-.799 1.798-.799 1.374 0 2.21.936 2.21 2.36v4.332h-1.748v-3.833c0-.736-.3-1.261-1.049-1.261-.612 0-1.211.437-1.211 1.299v3.795h-1.748Zm7.195-1.71v-3.396h-.874v-1.461h.874v-1.873h1.723v1.873h1.336v1.461h-1.336v3.034c0 .562.312.637.824.637.25 0 .375-.013.599-.038v1.448c-.312.063-.686.1-1.123.1-1.324 0-2.023-.437-2.023-1.785Z" fill="#0A2540"/></g><path d="m39.61 39.824-3.824 10.245h2.083l.814-2.197h4.224l.813 2.197h2.126l-3.838-10.245H39.61Zm1.17 2.326 1.456 3.938h-2.897l1.441-3.938Zm5.635 5.964c0 1.542.8 2.041 2.312 2.041.5 0 .928-.043 1.284-.114v-1.655c-.257.028-.4.042-.685.042-.585 0-.941-.085-.941-.727v-3.468h1.526v-1.67h-1.526v-2.14h-1.97v2.14h-.998v1.67h.998v3.881Zm6.484-8.29H50.9v10.245H52.9V39.824Zm7.4 8.405v-3.582c0-1.441-1.112-2.226-2.968-2.226-1.855 0-3.167.842-3.239 2.568h1.941c.043-.599.385-.927 1.199-.927.713 0 1.113.242 1.113.842v.328l-1.87.357c-1.526.27-2.71.899-2.71 2.397 0 1.327 1.098 2.212 2.568 2.212.913 0 1.64-.257 2.126-.728 0 .214.014.414.028.6h1.927c-.086-.557-.114-1.2-.114-1.841Zm-1.954-.828c0 .842-.785 1.27-1.627 1.27-.6 0-.985-.285-.985-.813 0-.6.486-.814 1.156-.942l1.456-.286v.77Zm2.51 1.398c.684.928 2.111 1.427 3.467 1.427 1.798 0 3.253-.97 3.253-2.54 0-1.698-1.555-1.997-2.868-2.269-.928-.185-1.427-.27-1.427-.756 0-.414.414-.685 1.042-.685.784 0 1.512.357 2.012 1l1.141-1.257c-.585-.756-1.77-1.298-3.096-1.298-1.798 0-3.068.999-3.068 2.44 0 1.612 1.341 1.926 2.554 2.169 1.199.228 1.755.3 1.755.87 0 .543-.585.77-1.256.77-.842 0-1.755-.441-2.269-1.14l-1.24 1.27Z" fill="#0A2540"/><g filter="url(#g)"><path fill="#fff" d="M35.672 71.348h71.27v93.404h-71.27z"/><path fill="#fff" d="M35.672 71.348h65.27v18h-65.27z"/><path d="M50.328 80.865c0 2.722 1.748 4.62 4.17 4.62 2.423 0 4.171-1.898 4.171-4.62 0-2.722-1.748-4.62-4.17-4.62-2.422 0-4.17 1.898-4.17 4.62Zm6.743 0c0 1.948-1.061 3.21-2.572 3.21-1.511 0-2.572-1.262-2.572-3.21s1.061-3.209 2.572-3.209c1.51 0 2.572 1.261 2.572 3.21Zm5.787 4.483 2.397-6.555h-1.548L62.12 83.55l-1.598-4.757H58.95l2.397 6.555h1.51Zm5.682.137c1.31 0 2.347-.687 2.81-1.835l-1.287-.487c-.2.674-.786 1.048-1.523 1.048-.962 0-1.636-.686-1.748-1.81h4.595v-.5c0-1.797-1.012-3.233-2.91-3.233-1.823 0-3.121 1.485-3.121 3.408 0 2.023 1.311 3.409 3.184 3.409Zm-.075-5.556c.949 0 1.398.624 1.41 1.348h-3.008c.224-.886.824-1.348 1.598-1.348Zm7.63-1.149a3.69 3.69 0 0 0-.425-.025c-.837 0-1.511.4-1.798 1.011v-.973h-1.498v6.555h1.498v-3.446c0-1.05.724-1.661 1.673-1.661.212 0 .362.012.55.037V78.78Zm4.165 6.568 2.397-6.555H81.11l-1.586 4.757-1.598-4.757h-1.573l2.397 6.555h1.51Zm3.044-7.43h1.548v-1.535h-1.548v1.536Zm1.523.875H83.33v6.555h1.498v-6.555Zm4.209 6.692c1.311 0 2.347-.687 2.81-1.835l-1.287-.487c-.2.674-.786 1.048-1.523 1.048-.961 0-1.636-.686-1.748-1.81h4.595v-.5c0-1.797-1.011-3.233-2.91-3.233-1.822 0-3.12 1.485-3.12 3.408 0 2.023 1.31 3.409 3.183 3.409Zm-.075-5.556c.95 0 1.398.624 1.411 1.348h-3.01c.226-.886.825-1.348 1.6-1.348Zm6.97-1.136-1.162 4.345-1.186-4.345h-1.536l1.973 6.555h1.298l1.199-4.296 1.199 4.296h1.298l1.973-6.555h-1.486l-1.161 4.345-1.174-4.345H95.93Z" fill="#635BFF"/><path fill="#fff" d="M35.672 96.482h67.27v18h-67.27z"/><path d="M51.602 106c0-2.123 1.174-3.558 2.834-3.558 1.161 0 1.998.674 2.323 1.81l1.136-.375c-.525-1.548-1.748-2.497-3.459-2.497-2.322 0-4.033 1.886-4.033 4.62s1.71 4.62 4.033 4.62c1.71 0 2.934-.949 3.459-2.497l-1.136-.375c-.325 1.136-1.162 1.81-2.323 1.81-1.66 0-2.834-1.435-2.834-3.558Zm12.988 1.224c0-2.023-1.249-3.397-3.035-3.397-1.785 0-3.034 1.374-3.034 3.397 0 2.022 1.249 3.396 3.035 3.396 1.785 0 3.034-1.374 3.034-3.396Zm-4.932 0c0-1.499.749-2.448 1.898-2.448 1.148 0 1.897.949 1.897 2.448 0 1.485-.749 2.434-1.898 2.434-1.148 0-1.897-.949-1.897-2.434Zm7.347-.65c0-1.061.8-1.698 1.548-1.698.924 0 1.299.687 1.299 1.598v4.008h1.123v-3.908c0-1.061.8-1.698 1.549-1.698.924 0 1.298.687 1.298 1.598v4.008h1.124v-4.307c0-1.386-.812-2.348-2.16-2.348a2.495 2.495 0 0 0-2.085 1.112c-.325-.675-.937-1.112-1.81-1.112-.912 0-1.536.475-1.886 1.012v-.887h-1.124v6.53h1.124v-3.908Zm12.762 4.046c1.81 0 2.847-1.548 2.847-3.396 0-1.861-1.037-3.397-2.847-3.397-.912 0-1.636.437-2.023 1.074v-.949H76.62v8.778h1.124v-3.197c.387.65 1.111 1.087 2.023 1.087Zm-2.048-3.621c0-1.523.924-2.185 1.848-2.185 1.224 0 1.91.999 1.91 2.41 0 1.398-.686 2.409-1.91 2.409-.924 0-1.848-.674-1.848-2.172v-.462Zm10.885 2.06v-3.371c0-1.199-.9-1.861-2.348-1.861-1.398 0-2.484.662-2.584 2.048h1.099c.087-.699.561-1.061 1.423-1.061.799 0 1.323.312 1.323 1.036v.4l-1.623.324c-1.46.288-2.485.837-2.485 2.135 0 1.174.974 1.886 2.16 1.886.85 0 1.574-.312 1.973-.787.013.262.025.487.05.674h1.112c-.063-.412-.1-.936-.1-1.423Zm-1.087-.799c0 .836-.836 1.423-1.798 1.423-.711 0-1.186-.387-1.186-1.024 0-.786.662-1.061 1.66-1.261l1.324-.274v1.136Zm2.766 2.222h1.123v-3.895c0-1.086.824-1.711 1.636-1.711.974 0 1.36.687 1.36 1.598v4.008h1.124v-4.307c0-1.386-.786-2.348-2.172-2.348-.924 0-1.573.475-1.948 1.012v-.887h-1.124v6.53Zm9.296.712 2.809-7.242h-1.174l-1.81 4.995-1.836-4.995h-1.186l2.422 6.293-.312.774c-.262.65-.524.824-1.011.824-.187 0-.325-.012-.537-.062v.974c.2.037.337.05.612.05 1.136 0 1.648-.624 2.023-1.611Z" fill="#4F5B76"/><path fill="#fff" d="M35.672 121.617h71.27v18h-71.27z"/><path d="M57.42 127.701v-1.049h-7.266v1.049h3.034v7.916h1.198v-7.916h3.034Zm2.234 8.054c1.298 0 2.285-.712 2.684-1.873l-.986-.35c-.2.774-.824 1.249-1.698 1.249-1.136 0-1.923-.874-1.985-2.248h4.72v-.374c0-1.811-.962-3.197-2.785-3.197-1.773 0-3.01 1.449-3.01 3.396 0 2.011 1.25 3.397 3.06 3.397Zm-.063-5.831c1.137 0 1.636.824 1.661 1.748h-3.52c.199-1.112.91-1.748 1.86-1.748Zm5.183 1.785c0-1.061.799-1.698 1.548-1.698.924 0 1.298.687 1.298 1.598v4.008h1.124v-3.908c0-1.061.8-1.698 1.548-1.698.924 0 1.299.687 1.299 1.598v4.008h1.124v-4.307c0-1.386-.812-2.348-2.16-2.348a2.496 2.496 0 0 0-2.086 1.111c-.324-.674-.936-1.111-1.81-1.111-.912 0-1.536.475-1.885 1.012v-.887H63.65v6.53h1.124v-3.908Zm12.761 4.046c1.81 0 2.847-1.549 2.847-3.397 0-1.86-1.036-3.396-2.847-3.396-.911 0-1.635.437-2.022 1.074v-.949h-1.124v8.778h1.124v-3.197c.387.65 1.11 1.087 2.022 1.087Zm-2.047-3.621c0-1.524.924-2.185 1.848-2.185 1.223 0 1.91.998 1.91 2.409 0 1.399-.687 2.41-1.91 2.41-.924 0-1.848-.674-1.848-2.172v-.462Zm7.3-5.482h-1.123v8.965h1.124v-8.965Zm6.446 7.542v-3.371c0-1.199-.898-1.861-2.347-1.861-1.398 0-2.485.662-2.585 2.048h1.1c.087-.699.561-1.061 1.423-1.061.799 0 1.323.312 1.323 1.036v.399l-1.623.325c-1.46.287-2.485.837-2.485 2.135 0 1.174.974 1.886 2.16 1.886.85 0 1.574-.313 1.973-.787.013.262.025.487.05.674h1.111c-.062-.412-.1-.936-.1-1.423Zm-1.086-.799c0 .836-.836 1.423-1.798 1.423-.712 0-1.186-.387-1.186-1.024 0-.786.662-1.061 1.66-1.261l1.324-.275v1.137Zm2.94.661c0 1.249.637 1.624 1.748 1.624.375 0 .7-.038.987-.1v-.962c-.263.063-.45.075-.712.075-.575 0-.912-.125-.912-.811v-3.834h1.486v-.961H92.2v-1.91h-1.11v1.91h-1.012v.961h1.011v4.008Zm6.504 1.699c1.299 0 2.285-.712 2.685-1.873l-.987-.35c-.2.774-.824 1.249-1.698 1.249-1.136 0-1.923-.874-1.985-2.248h4.72v-.374c0-1.811-.962-3.197-2.785-3.197-1.773 0-3.009 1.449-3.009 3.396 0 2.011 1.249 3.397 3.06 3.397Zm-.062-5.831c1.136 0 1.635.824 1.66 1.748h-3.52c.2-1.112.91-1.748 1.86-1.748Zm3.334 4.307c.499 1.012 1.686 1.524 2.872 1.524 1.398 0 2.534-.825 2.534-2.073 0-1.424-1.286-1.648-2.409-1.91-.912-.2-1.486-.313-1.486-.924 0-.587.499-.962 1.248-.962.824 0 1.436.412 1.773 1.061l.799-.636c-.387-.774-1.348-1.349-2.522-1.349-1.386 0-2.397.812-2.397 1.973 0 1.336 1.124 1.573 2.198 1.81 1.073.225 1.698.325 1.698 1.037 0 .711-.675 1.036-1.436 1.036-.849 0-1.648-.462-1.998-1.224l-.874.637Z" fill="#4F5B76"/><path fill="#fff" d="M35.672 146.752h61.27v18h-61.27z"/><path d="M52.126 156.994h2.223c1.898 0 3.109-.924 3.109-2.61 0-1.71-1.211-2.597-3.11-2.597h-3.42v8.965h1.198v-3.758Zm0-1.037v-3.134h2.16c1.274 0 1.986.55 1.986 1.561 0 1.012-.712 1.573-1.986 1.573h-2.16Zm10.894 3.372v-3.372c0-1.198-.9-1.86-2.348-1.86-1.398 0-2.484.662-2.584 2.048h1.099c.087-.7.561-1.062 1.423-1.062.799 0 1.323.313 1.323 1.037v.399l-1.623.325c-1.46.287-2.484.836-2.484 2.135 0 1.174.974 1.885 2.16 1.885.849 0 1.573-.312 1.972-.786.013.262.025.487.05.674h1.112c-.063-.412-.1-.936-.1-1.423Zm-1.087-.8c0 .837-.836 1.424-1.798 1.424-.711 0-1.186-.387-1.186-1.024 0-.787.662-1.061 1.66-1.261l1.324-.275v1.136Zm6.15-4.332a4.068 4.068 0 0 0-.45-.025c-.887 0-1.524.499-1.81 1.161v-1.111h-1.124v6.53h1.123v-3.571c0-1.149.762-1.898 1.71-1.898.213 0 .363.013.55.05v-1.136Zm1.347 4.994c0 1.249.637 1.623 1.748 1.623.375 0 .7-.037.987-.1v-.961c-.262.063-.45.075-.712.075-.574 0-.911-.125-.911-.812v-3.833h1.486v-.961h-1.486v-1.91H69.43v1.91H68.42v.961h1.011v4.008Zm3.931 1.561h1.124v-3.896c0-1.086.824-1.71 1.636-1.71.974 0 1.36.687 1.36 1.598v4.008h1.125v-4.308c0-1.386-.787-2.347-2.173-2.347-.924 0-1.573.474-1.948 1.011v-.886h-1.123v6.53Zm9.52.137c1.299 0 2.285-.711 2.685-1.873l-.987-.349c-.2.774-.824 1.248-1.698 1.248-1.136 0-1.922-.874-1.985-2.247h4.72v-.375c0-1.81-.962-3.196-2.785-3.196-1.773 0-3.009 1.448-3.009 3.396 0 2.01 1.249 3.396 3.06 3.396Zm-.062-5.831c1.136 0 1.636.824 1.66 1.748h-3.52c.2-1.111.911-1.748 1.86-1.748Zm7.442-.861a4.068 4.068 0 0 0-.45-.025c-.886 0-1.523.499-1.81 1.161v-1.111h-1.124v6.53h1.124v-3.571c0-1.149.762-1.898 1.71-1.898.213 0 .363.013.55.05v-1.136Zm.254 5.169c.5 1.011 1.686 1.523 2.872 1.523 1.398 0 2.534-.824 2.534-2.072 0-1.424-1.286-1.648-2.41-1.911-.91-.199-1.485-.312-1.485-.924 0-.586.5-.961 1.249-.961.824 0 1.435.412 1.772 1.061l.8-.637c-.387-.774-1.349-1.348-2.523-1.348-1.385 0-2.397.812-2.397 1.973 0 1.336 1.124 1.573 2.198 1.81 1.073.225 1.698.325 1.698 1.037 0 .711-.674 1.036-1.436 1.036-.85 0-1.648-.462-1.998-1.224l-.874.637Z" fill="#4F5B76"/></g><path stroke="#635BFF" stroke-width="1.784" d="M36.564 71.348v17.837"/></g><defs><filter id="b" x="249.717" y="71.376" width="542.244" height="40.296" filterUnits="userSpaceOnUse" color-interpolation-filters="sRGB"><feFlood flood-opacity="0" result="BackgroundImageFix"/><feColorMatrix in="SourceAlpha" values="0 0 0 0 0 0 0 0 0 0 0 0 0 0 0 0 0 0 127 0" result="hardAlpha"/><feOffset dy=".892"/><feComposite in2="hardAlpha" operator="out"/><feColorMatrix values="0 0 0 0 0.898039 0 0 0 0 0.917647 0 0 0 0 0.941176 0 0 0 1 0"/><feBlend in2="BackgroundImageFix" result="effect1_dropShadow_1167_78167"/><feBlend in="SourceGraphic" in2="effect1_dropShadow_1167_78167" result="shape"/></filter><filter id="c" x="249.604" y="111.672" width="542.357" height="40.296" filterUnits="userSpaceOnUse" color-interpolation-filters="sRGB"><feFlood flood-opacity="0" result="BackgroundImageFix"/><feColorMatrix in="SourceAlpha" values="0 0 0 0 0 0 0 0 0 0 0 0 0 0 0 0 0 0 127 0" result="hardAlpha"/><feOffset dy=".892"/><feComposite in2="hardAlpha" operator="out"/><feColorMatrix values="0 0 0 0 0.898039 0 0 0 0 0.917647 0 0 0 0 0.941176 0 0 0 1 0"/><feBlend in2="BackgroundImageFix" result="effect1_dropShadow_1167_78167"/><feBlend in="SourceGraphic" in2="effect1_dropShadow_1167_78167" result="shape"/></filter><filter id="d" x="249.717" y="151.968" width="542.244" height="40.296" filterUnits="userSpaceOnUse" color-interpolation-filters="sRGB"><feFlood flood-opacity="0" result="BackgroundImageFix"/><feColorMatrix in="SourceAlpha" values="0 0 0 0 0 0 0 0 0 0 0 0 0 0 0 0 0 0 127 0" result="hardAlpha"/><feOffset dy=".892"/><feComposite in2="hardAlpha" operator="out"/><feColorMatrix values="0 0 0 0 0.898039 0 0 0 0 0.917647 0 0 0 0 0.941176 0 0 0 1 0"/><feBlend in2="BackgroundImageFix" result="effect1_dropShadow_1167_78167"/><feBlend in="SourceGraphic" in2="effect1_dropShadow_1167_78167" result="shape"/></filter><filter id="e" x="249.717" y="192.264" width="538.676" height="40.296" filterUnits="userSpaceOnUse" color-interpolation-filters="sRGB"><feFlood flood-opacity="0" result="BackgroundImageFix"/><feColorMatrix in="SourceAlpha" values="0 0 0 0 0 0 0 0 0 0 0 0 0 0 0 0 0 0 127 0" result="hardAlpha"/><feOffset dy=".892"/><feComposite in2="hardAlpha" operator="out"/><feColorMatrix values="0 0 0 0 0.898039 0 0 0 0 0.917647 0 0 0 0 0.941176 0 0 0 1 0"/><feBlend in2="BackgroundImageFix" result="effect1_dropShadow_1167_78167"/><feBlend in="SourceGraphic" in2="effect1_dropShadow_1167_78167" result="shape"/></filter><filter id="f" x="249.717" y="232.56" width="538.676" height="40.296" filterUnits="userSpaceOnUse" color-interpolation-filters="sRGB"><feFlood flood-opacity="0" result="BackgroundImageFix"/><feColorMatrix in="SourceAlpha" values="0 0 0 0 0 0 0 0 0 0 0 0 0 0 0 0 0 0 127 0" result="hardAlpha"/><feOffset dy=".892"/><feComposite in2="hardAlpha" operator="out"/><feColorMatrix values="0 0 0 0 0.898039 0 0 0 0 0.917647 0 0 0 0 0.941176 0 0 0 1 0"/><feBlend in2="BackgroundImageFix" result="effect1_dropShadow_1167_78167"/><feBlend in="SourceGraphic" in2="effect1_dropShadow_1167_78167" result="shape"/></filter><filter id="g" x="35.672" y="71.348" width="71.269" height="93.404" filterUnits="userSpaceOnUse" color-interpolation-filters="sRGB"><feFlood flood-opacity="0" result="BackgroundImageFix"/><feBlend in="SourceGraphic" in2="BackgroundImageFix" result="shape"/><feColorMatrix in="SourceAlpha" values="0 0 0 0 0 0 0 0 0 0 0 0 0 0 0 0 0 0 127 0" result="hardAlpha"/><feOffset dx="1.784"/><feComposite in2="hardAlpha" operator="arithmetic" k2="-1" k3="1"/><feColorMatrix values="0 0 0 0 0.423529 0 0 0 0 0.54902 0 0 0 0 0.670588 0 0 0 0.15 0"/><feBlend in2="shape" result="effect1_innerShadow_1167_78167"/></filter><clipPath id="a"><path d="M0 8a8 8 0 0 1 8-8h426v272H0V8Z" fill="#fff"/></clipPath></defs></svg>